<svg xmlns="http://www.w3.org/2000/svg" viewBox="0 0 1200 750" width="1200" height="750" role="img" aria-label="Illustration of a tour coach beside a barbed-wire fence in a green valley, with a hilltop observation deck and binoculars under a bright morning sky">
<defs><linearGradient id="sky" x1="0" y1="0" x2="0" y2="1"><stop offset="0" stop-color="#4FA3E3"/><stop offset="0.7" stop-color="#BFE6F7"/><stop offset="1" stop-color="#FFF1C9"/></linearGradient></defs>
<rect width="1200" height="750" fill="url(#sky)"/>
<circle cx="1010" cy="130" r="62" fill="#FFD84D"/>
<g fill="#FFFFFF" opacity="0.95"><ellipse cx="220" cy="130" rx="90" ry="28"/><ellipse cx="290" cy="112" rx="60" ry="24"/><ellipse cx="620" cy="180" rx="100" ry="26"/><ellipse cx="690" cy="164" rx="56" ry="22"/></g>
<path d="M0 420 Q180 290 360 400 T720 380 T1200 360 V750 H0z" fill="#7FB8A4"/>
<path d="M0 470 Q260 380 520 460 T1200 440 V750 H0z" fill="#4E9A5B"/>
<path d="M0 560 Q300 500 640 550 T1200 530 V750 H0z" fill="#3C8048"/>
<g transform="translate(760 210)">
<rect x="0" y="120" width="260" height="30" rx="6" fill="#8D5A34"/>
<rect x="20" y="40" width="220" height="80" rx="10" fill="#F2E3C6"/>
<rect x="36" y="56" width="42" height="40" fill="#8FD0F0"/><rect x="92" y="56" width="42" height="40" fill="#8FD0F0"/><rect x="148" y="56" width="42" height="40" fill="#8FD0F0"/><rect x="204" y="56" width="22" height="40" fill="#8FD0F0"/>
<path d="M0 40 H260 L236 8 H24z" fill="#E4572E"/>
<rect x="30" y="150" width="14" height="150" fill="#8D5A34"/><rect x="216" y="150" width="14" height="150" fill="#8D5A34"/>
<g transform="translate(120 70)"><rect x="-26" y="14" width="22" height="18" rx="5" fill="#2F3B52"/><rect x="4" y="14" width="22" height="18" rx="5" fill="#2F3B52"/><rect x="-6" y="18" width="12" height="8" fill="#2F3B52"/></g>
</g>
<g stroke="#5A4630" stroke-width="7"><path d="M60 560V650M200 548V640M340 556V646M480 552V642M620 558V648"/></g>
<g stroke="#4A4A55" stroke-width="3" fill="none"><path d="M40 575 Q130 595 220 570 T400 572 T640 574"/><path d="M40 610 Q130 630 220 606 T400 608 T640 610"/><path d="M40 640 Q130 660 220 636 T400 638 T640 640"/></g>
<g stroke="#4A4A55" stroke-width="2.5"><path d="M92 566l10 6m-10 0l10-6M262 566l10 6m-10 0l10-6M432 568l10 6m-10 0l10-6M572 570l10 6m-10 0l10-6"/></g>
<g transform="translate(700 560)">
<rect x="0" y="40" width="360" height="110" rx="22" fill="#2F8F6B"/>
<rect x="0" y="40" width="360" height="34" rx="18" fill="#52C093"/>
<g fill="#CDEFFF"><rect x="22" y="84" width="58" height="34" rx="6"/><rect x="96" y="84" width="58" height="34" rx="6"/><rect x="170" y="84" width="58" height="34" rx="6"/><rect x="244" y="84" width="58" height="34" rx="6"/></g>
<rect x="318" y="84" width="30" height="46" rx="6" fill="#CDEFFF"/>
<circle cx="80" cy="152" r="26" fill="#2B2F3A"/><circle cx="80" cy="152" r="11" fill="#C8CDD6"/><circle cx="270" cy="152" r="26" fill="#2B2F3A"/><circle cx="270" cy="152" r="11" fill="#C8CDD6"/>
<rect x="110" y="48" width="140" height="22" rx="6" fill="#FFD84D"/>
</g>
<g transform="translate(410 330)" fill="#2F3B52"><circle cx="0" cy="0" r="22"/><circle cx="52" cy="0" r="22"/><rect x="-6" y="-26" width="64" height="12" rx="4"/></g>
<g fill="#FFD84D"><circle cx="410" cy="330" r="12"/><circle cx="462" cy="330" r="12"/></g>
<g fill="#E4572E"><path d="M140 300l22 38h-44z"/></g>
<g fill="#2F3B52"><rect x="136" y="338" width="8" height="40"/></g>
</svg>
