<svg xmlns="http://www.w3.org/2000/svg" viewBox="0 0 1200 750" role="img" aria-label="Illustration of a smartphone showing colourful app tiles beside a map pin and a speech bubble">
<rect width="1200" height="750" fill="#E8F4FF"/>
<circle cx="170" cy="150" r="110" fill="#CFE8FF"/><circle cx="1060" cy="620" r="150" fill="#FFE1EA"/><circle cx="1030" cy="130" r="70" fill="#FFF0B8"/>
<rect x="400" y="60" width="400" height="640" rx="56" fill="#23304A"/><rect x="420" y="90" width="360" height="580" rx="38" fill="#FFFFFF"/><rect x="540" y="72" width="120" height="12" rx="6" fill="#3B4A6B"/>
<rect x="450" y="130" width="96" height="96" rx="24" fill="#2E9CCA"/>
<path d="M498 152 a16 16 0 0 1 16 16 c0 14 -16 32 -16 32 s-16 -18 -16 -32 a16 16 0 0 1 16 -16z" fill="#fff"/><circle cx="498" cy="168" r="6" fill="#2E9CCA"/>
<rect x="560" y="130" width="96" height="96" rx="24" fill="#F2A93B"/>
<path d="M580 156 h56 a8 8 0 0 1 8 8 v26 a8 8 0 0 1 -8 8 h-30 l-14 12 v-12 h-12 a8 8 0 0 1 -8 -8 v-26 a8 8 0 0 1 8 -8z" fill="#fff"/>
<rect x="670" y="130" width="96" height="96" rx="24" fill="#F5C518"/>
<rect x="686" y="172" width="64" height="24" rx="8" fill="#fff"/><path d="M698 172 l8 -14 h24 l8 14z" fill="#fff"/><circle cx="702" cy="198" r="7" fill="#444"/><circle cx="734" cy="198" r="7" fill="#444"/>
<rect x="450" y="250" width="96" height="96" rx="24" fill="#D9381E"/>
<rect x="474" y="268" width="48" height="52" rx="14" fill="#fff"/><rect x="482" y="278" width="32" height="16" rx="4" fill="#D9381E"/><circle cx="486" cy="308" r="4" fill="#D9381E"/><circle cx="510" cy="308" r="4" fill="#D9381E"/>
<rect x="560" y="250" width="96" height="96" rx="24" fill="#2FB67C"/>
<rect x="576" y="278" width="64" height="42" rx="8" fill="#fff"/><rect x="576" y="288" width="64" height="8" fill="#2FB67C"/>
<rect x="670" y="250" width="96" height="96" rx="24" fill="#8A5CD0"/>
<circle cx="718" cy="298" r="28" fill="#fff"/><rect x="714" y="280" width="8" height="24" rx="3" fill="#8A5CD0"/><circle cx="718" cy="314" r="5" fill="#8A5CD0"/>
<rect x="450" y="380" width="300" height="24" rx="12" fill="#E3E9F3"/><rect x="450" y="420" width="220" height="24" rx="12" fill="#E3E9F3"/><rect x="450" y="470" width="300" height="170" rx="22" fill="#DDF2E6"/><path d="M450 600 Q540 520 620 580 T750 540 V640 H450z" fill="#9AD9B4"/><circle cx="640" cy="540" r="10" fill="#D9381E"/>
<path d="M190 330 a60 60 0 0 1 120 0 c0 46 -60 112 -60 112 s-60 -66 -60 -112z" fill="#D9381E"/><circle cx="250" cy="330" r="24" fill="#fff"/>
<path d="M880 260 h200 a24 24 0 0 1 24 24 v84 a24 24 0 0 1 -24 24 h-120 l-50 44 v-44 h-30 a24 24 0 0 1 -24 -24 v-84 a24 24 0 0 1 24 -24z" fill="#2E9CCA"/><rect x="900" y="296" width="150" height="14" rx="7" fill="#fff"/><rect x="900" y="326" width="110" height="14" rx="7" fill="#fff" opacity=".8"/><rect x="900" y="356" width="130" height="14" rx="7" fill="#fff" opacity=".6"/>
</svg>